<?xml version="1.0"?>
<svg version="1.1" xmlns="http://www.w3.org/2000/svg" xmlns:xlink="http://www.w3.org/1999/xlink" width="480" height="480">
    <desc iVinci="yes" version="4.6" gridStep="20" showGrid="no" snapToGrid="no" codePlatform="0"/>
    <g id="Layer1" name="Layer 1" opacity="1">
        <g id="Shape1">
            <desc shapeID="1" type="0" basicInfo-basicType="4" basicInfo-roundedRectRadius="12" basicInfo-polygonSides="6" basicInfo-starPoints="5" bounding="rect(-186,-186.001,372,372.001)" text="" font-familyName="Helvetica" font-pixelSize="20" font-bold="0" font-underline="0" font-alignment="1" strokeStyle="0" markerStart="0" markerEnd="0" shadowEnabled="0" shadowOffsetX="0" shadowOffsetY="2" shadowBlur="4" shadowOpacity="160" blurEnabled="0" blurRadius="4" transform="matrix(1.26559,0,0,1.27076,240,239.751)" pers-center="0,0" pers-size="0,0" pers-start="0,0" pers-end="0,0" locked="0" mesh="" flag=""/>
            <path id="shapePath1" d="M4.60046,239.75 C4.60054,109.211 109.992,3.38782 240,3.38782 C370.008,3.38782 475.4,109.211 475.4,239.75 C475.4,370.289 370.008,476.112 240,476.112 C109.992,476.112 4.60046,370.289 4.60046,239.75 Z" style="stroke:#ffffff;stroke-opacity:1;stroke-width:6;stroke-linejoin:miter;stroke-miterlimit:2;stroke-linecap:round;fill:none;"/>
        </g>
    </g>
    <g id="Layer2" name="Layer 4" opacity="1">
        <g id="Shape2">
            <desc shapeID="2" type="0" basicInfo-basicType="0" basicInfo-roundedRectRadius="12" basicInfo-polygonSides="6" basicInfo-starPoints="5" bounding="rect(-40.065,-33.7166,80.1301,67.4331)" text="" font-familyName="" font-pixelSize="20" font-bold="0" font-underline="0" font-alignment="1" strokeStyle="0" markerStart="0" markerEnd="0" shadowEnabled="0" shadowOffsetX="0" shadowOffsetY="2" shadowBlur="4" shadowOpacity="160" blurEnabled="0" blurRadius="4" transform="matrix(3.34143,0,0,3.34143,240,240.001)" pers-center="0,0" pers-size="0,0" pers-start="0,0" pers-end="0,0" locked="0" mesh="" flag=""/>
            <path id="shapePath2" d="M267.701,166.012 C280.081,173.775 288.762,186.91 290.342,202.157 C295.391,204.516 300.995,205.872 306.936,205.872 C328.625,205.872 346.204,188.293 346.204,166.607 C346.204,144.918 328.625,127.339 306.936,127.339 C285.454,127.345 268.028,144.611 267.701,166.012 M241.975,246.414 C263.664,246.414 281.243,228.831 281.243,207.146 C281.243,185.46 263.661,167.88 241.975,167.88 C220.289,167.88 202.7,185.463 202.7,207.149 C202.7,228.835 220.289,246.414 241.975,246.414 M258.632,249.091 L225.311,249.091 C197.587,249.091 175.033,271.649 175.033,299.372 L175.033,340.121 L175.136,340.759 L177.943,341.638 C204.401,349.905 227.386,352.662 246.305,352.662 C283.258,352.662 304.677,342.126 305.997,341.454 L308.62,340.128 L308.901,340.128 L308.901,299.372 C308.911,271.649 286.356,249.091 258.632,249.091 M323.6,208.552 L290.536,208.552 C290.178,221.781 284.531,233.693 275.6,242.261 C300.243,249.588 318.273,272.44 318.273,299.433 L318.273,311.99 C350.919,310.793 369.731,301.541 370.971,300.92 L373.594,299.59 L373.875,299.59 L373.875,258.827 C373.875,231.107 351.32,208.552 323.6,208.552 M173.071,205.879 C180.753,205.879 187.901,203.637 193.955,199.818 C195.88,187.264 202.61,176.294 212.223,168.823 C212.263,168.088 212.333,167.359 212.333,166.617 C212.333,144.928 194.75,127.349 173.071,127.349 C151.379,127.349 133.803,144.928 133.803,166.617 C133.803,188.297 151.379,205.879 173.071,205.879 M208.337,242.261 C199.449,233.737 193.822,221.888 193.411,208.739 C192.184,208.649 190.971,208.552 189.722,208.552 L156.404,208.552 C128.68,208.552 106.126,231.107 106.126,258.827 L106.126,299.583 L106.229,300.211 L109.036,301.097 C130.261,307.723 149.203,310.777 165.657,311.739 L165.657,299.433 C165.663,272.44 183.687,249.595 208.337,242.261 Z" style="stroke:none;fill-rule:evenodd;fill:#ffffff;fill-opacity:1;"/>
        </g>
    </g>
    <g id="Layer3" name="Layer 2" visibility="hidden" opacity="1">
        <g id="Shape3">
            <desc shapeID="3" type="0" basicInfo-basicType="0" basicInfo-roundedRectRadius="12" basicInfo-polygonSides="6" basicInfo-starPoints="5" bounding="rect(-41.9998,-44.9999,83.9997,89.9998)" text="" font-familyName="" font-pixelSize="20" font-bold="0" font-underline="0" font-alignment="1" strokeStyle="0" markerStart="0" markerEnd="0" shadowEnabled="0" shadowOffsetX="0" shadowOffsetY="2" shadowBlur="4" shadowOpacity="160" blurEnabled="0" blurRadius="4" transform="matrix(2.86175,0,0,2.86175,240,236.605)" pers-center="0,0" pers-size="0,0" pers-start="0,0" pers-end="0,0" locked="0" mesh="" flag=""/>
            <path id="shapePath3" d="M322.722,277.093 C323.437,273.253 323.932,269.398 323.955,265.535 C324.147,217.123 297.836,198.246 269.971,182.115 C278.038,224.512 251.939,250.685 219.513,241.522 C266.906,164.003 197.944,163.814 219.021,107.827 C186.608,130.852 154.093,195.29 154.196,242.32 C154.213,254.74 155.464,266.284 157.779,276.859 C134.447,286.211 119.807,299.455 119.807,314.136 C119.807,342.364 173.802,365.384 240.006,365.384 C306.218,365.384 360.193,342.364 360.193,314.136 C360.193,299.567 345.741,286.431 322.722,277.093 M194.003,215.56 C185.037,255.988 209.073,286.093 232.219,286.388 C258.329,286.58 273.811,262.186 281.183,230.212 C295.057,240.801 302.22,255.564 303.139,270.617 C303.099,270.606 303.07,270.597 303.033,270.586 C304.083,287.633 297.118,305.05 282.649,317.232 C282.574,317.298 282.497,317.364 282.42,317.424 C279.306,320.019 275.84,322.363 272.046,324.418 C271.714,324.598 271.362,324.77 271.016,324.953 C269.499,325.743 267.922,326.476 266.302,327.168 C265.833,327.368 265.369,327.574 264.894,327.766 C260.914,329.366 256.632,330.659 252.057,331.618 C251.413,331.75 250.76,331.861 250.105,331.982 C248.376,332.293 246.605,332.571 244.799,332.791 C244.089,332.874 243.391,332.969 242.664,333.043 C240.206,333.284 237.696,333.461 235.092,333.515 C233.275,333.553 231.475,333.478 229.692,333.355 C229.223,333.324 228.759,333.284 228.293,333.244 C226.782,333.103 225.282,332.923 223.802,332.674 C223.522,332.628 223.242,332.6 222.964,332.545 C221.175,332.228 219.41,331.83 217.676,331.349 C217.464,331.289 217.255,331.22 217.043,331.163 C215.423,330.699 213.829,330.17 212.264,329.572 C212.101,329.512 211.935,329.449 211.769,329.386 C190.291,320.95 174.681,300.033 175.516,270.969 C175.476,270.978 175.445,270.992 175.408,271.003 C175.871,254.803 181.426,236.09 194.003,215.56 Z" style="stroke:none;fill-rule:evenodd;fill:#ff8375;fill-opacity:1;"/>
        </g>
    </g>
    <g id="Layer4" name="Layer 6" visibility="hidden" opacity="1">
        <g id="Shape4">
            <desc shapeID="4" type="0" basicInfo-basicType="0" basicInfo-roundedRectRadius="12" basicInfo-polygonSides="6" basicInfo-starPoints="5" bounding="rect(-289.053,-288.865,578.106,577.73)" text="" font-familyName="" font-pixelSize="20" font-bold="0" font-underline="0" font-alignment="1" strokeStyle="0" markerStart="0" markerEnd="0" shadowEnabled="0" shadowOffsetX="0" shadowOffsetY="2" shadowBlur="4" shadowOpacity="160" blurEnabled="0" blurRadius="4" transform="matrix(0.442785,0,0,0.442785,240,240)" pers-center="0,0" pers-size="0,0" pers-start="0,0" pers-end="0,0" locked="0" mesh="" flag=""/>
            <path id="shapePath4" d="M367.866,313.979 C368.409,318.134 367.142,321.747 364.073,324.818 L328.032,360.587 C326.406,362.393 324.283,363.93 321.664,365.193 C319.044,366.458 316.47,367.271 313.942,367.632 C313.761,367.632 313.218,367.679 312.314,367.769 C311.413,367.859 310.238,367.905 308.793,367.905 C305.36,367.905 299.804,367.318 292.126,366.143 C284.448,364.968 275.055,362.077 263.945,357.472 C252.833,352.865 240.233,345.954 226.142,336.741 C212.051,327.529 197.056,314.882 181.158,298.803 C168.512,286.338 158.034,274.415 149.724,263.034 C141.414,251.652 134.73,241.129 129.671,231.464 C124.613,221.799 120.819,213.037 118.29,205.178 C115.76,197.32 114.044,190.545 113.141,184.854 C112.238,179.164 111.876,174.693 112.057,171.441 C112.238,168.189 112.328,166.382 112.328,166.021 C112.689,163.492 113.502,160.917 114.767,158.298 C116.031,155.678 117.567,153.556 119.373,151.93 L155.414,115.889 C157.944,113.36 160.834,112.095 164.086,112.095 C166.434,112.095 168.512,112.773 170.319,114.128 C172.125,115.482 173.661,117.153 174.925,119.141 L203.921,174.151 C205.547,177.041 205.998,180.203 205.276,183.635 C204.553,187.067 203.017,189.958 200.669,192.307 L187.391,205.585 C187.029,205.946 186.713,206.533 186.442,207.346 C186.171,208.159 186.036,208.837 186.036,209.379 C186.758,213.172 188.384,217.508 190.913,222.386 C193.081,226.722 196.423,232.006 200.94,238.238 C205.456,244.471 211.87,251.652 220.18,259.781 C228.309,268.092 235.536,274.55 241.858,279.158 C248.18,283.762 253.466,287.151 257.712,289.319 C261.957,291.487 265.209,292.797 267.467,293.247 L270.853,293.925 C271.214,293.925 271.803,293.789 272.615,293.518 C273.428,293.247 274.015,292.931 274.377,292.569 L289.822,276.852 C293.076,273.962 296.868,272.517 301.204,272.517 C304.276,272.517 306.714,273.059 308.52,274.143 L308.791,274.143 L361.09,305.035 C364.885,307.386 367.143,310.365 367.866,313.979 Z" style="stroke:none;fill-rule:evenodd;fill:#ffffff;fill-opacity:1;"/>
        </g>
    </g>
</svg>
