<?xml version="1.0"?>
<svg version="1.1" xmlns="http://www.w3.org/2000/svg" xmlns:xlink="http://www.w3.org/1999/xlink" width="480" height="480">
    <desc iVinci="yes" version="4.6" gridStep="20" showGrid="no" snapToGrid="no" codePlatform="0"/>
    <g id="Layer1" name="Layer 1" opacity="1">
        <g id="Shape1">
            <desc shapeID="1" type="0" basicInfo-basicType="4" basicInfo-roundedRectRadius="12" basicInfo-polygonSides="6" basicInfo-starPoints="5" bounding="rect(-186,-186.001,372,372.001)" text="" font-familyName="Helvetica" font-pixelSize="20" font-bold="0" font-underline="0" font-alignment="1" strokeStyle="0" markerStart="0" markerEnd="0" shadowEnabled="0" shadowOffsetX="0" shadowOffsetY="2" shadowBlur="4" shadowOpacity="160" blurEnabled="0" blurRadius="4" transform="matrix(1.26559,0,0,1.27076,240,239.75)" pers-center="0,0" pers-size="0,0" pers-start="0,0" pers-end="0,0" locked="0" mesh="" flag=""/>
            <path id="shapePath1" d="M4.60046,239.75 C4.60054,109.211 109.992,3.38782 240,3.38782 C370.008,3.38782 475.4,109.211 475.4,239.75 C475.4,370.289 370.008,476.112 240,476.112 C109.992,476.112 4.60046,370.289 4.60046,239.75 Z" style="stroke:#ffffff;stroke-opacity:1;stroke-width:6;stroke-linejoin:miter;stroke-miterlimit:2;stroke-linecap:round;fill:none;"/>
        </g>
    </g>
    <g id="Layer2" name="Layer 2" opacity="1">
        <g id="Shape2">
            <desc shapeID="2" type="0" basicInfo-basicType="0" basicInfo-roundedRectRadius="12" basicInfo-polygonSides="6" basicInfo-starPoints="5" bounding="rect(-41.9998,-44.9999,83.9997,89.9998)" text="" font-familyName="" font-pixelSize="20" font-bold="0" font-underline="0" font-alignment="1" strokeStyle="0" markerStart="0" markerEnd="0" shadowEnabled="0" shadowOffsetX="0" shadowOffsetY="2" shadowBlur="4" shadowOpacity="160" blurEnabled="0" blurRadius="4" transform="matrix(2.86175,0,0,2.86175,240,236.605)" pers-center="0,0" pers-size="0,0" pers-start="0,0" pers-end="0,0" locked="0" mesh="" flag=""/>
            <path id="shapePath2" d="M322.722,277.093 C323.437,273.253 323.932,269.398 323.955,265.535 C324.147,217.123 297.836,198.246 269.971,182.115 C278.038,224.512 251.939,250.685 219.513,241.522 C266.906,164.003 197.944,163.814 219.021,107.827 C186.608,130.852 154.093,195.29 154.196,242.32 C154.213,254.74 155.464,266.284 157.779,276.859 C134.447,286.211 119.807,299.455 119.807,314.136 C119.807,342.364 173.802,365.384 240.006,365.384 C306.218,365.384 360.193,342.364 360.193,314.136 C360.193,299.567 345.741,286.431 322.722,277.093 M194.003,215.56 C185.037,255.988 209.073,286.093 232.219,286.388 C258.329,286.58 273.811,262.186 281.183,230.212 C295.057,240.801 302.22,255.564 303.139,270.617 C303.099,270.606 303.07,270.597 303.033,270.586 C304.083,287.633 297.118,305.05 282.649,317.232 C282.574,317.298 282.497,317.364 282.42,317.424 C279.306,320.019 275.84,322.363 272.046,324.418 C271.714,324.598 271.362,324.77 271.016,324.953 C269.499,325.743 267.922,326.476 266.302,327.168 C265.833,327.368 265.369,327.574 264.894,327.766 C260.914,329.366 256.632,330.659 252.057,331.618 C251.413,331.75 250.76,331.861 250.105,331.982 C248.376,332.293 246.605,332.571 244.799,332.791 C244.089,332.874 243.391,332.969 242.664,333.043 C240.206,333.284 237.696,333.461 235.092,333.515 C233.275,333.553 231.475,333.478 229.692,333.355 C229.223,333.324 228.759,333.284 228.293,333.244 C226.782,333.103 225.282,332.923 223.802,332.674 C223.522,332.628 223.242,332.6 222.964,332.545 C221.175,332.228 219.41,331.83 217.676,331.349 C217.464,331.289 217.255,331.22 217.043,331.163 C215.423,330.699 213.829,330.17 212.264,329.572 C212.101,329.512 211.935,329.449 211.769,329.386 C190.291,320.95 174.681,300.033 175.516,270.969 C175.476,270.978 175.445,270.992 175.408,271.003 C175.871,254.803 181.426,236.09 194.003,215.56 Z" style="stroke:none;fill-rule:evenodd;fill:#ffffff;fill-opacity:1;"/>
        </g>
    </g>
</svg>
