<svg xmlns="http://www.w3.org/2000/svg" width="122" height="122" viewBox="0 0 122 122"><defs><clipPath id="a"><path fill="#fff" d="M213 2487.5a8.5 8.5 0 1 1 17 0 8.5 8.5 0 0 1-17 0z"/></clipPath></defs><path fill="none" stroke="#fff" stroke-miterlimit="50" stroke-width="2" d="M60.5 120.01a59.28 59.28 0 0 0 37.72-13.48 59.5 59.5 0 1 0-37.72 13.48z"/><path fill="none" stroke="#fff" stroke-miterlimit="50" stroke-width="2" d="M213 2487.5a8.5 8.5 0 1 1 17 0 8.5 8.5 0 0 1-17 0z" clip-path="url(&quot;#a&quot;)" transform="translate(-114 -2390)"/><path fill="#fff" d="M76 4a4 4 0 1 1 8 0 4 4 0 0 1-8 0zM103 97a4 4 0 1 1 8 0 4 4 0 0 1-8 0zM1 81a4 4 0 1 1 8 0 4 4 0 0 1-8 0z"/></svg>